<?xml version="1.0" encoding="utf-8"?>
<!-- Svg Vector Icons : http://www.onlinewebfonts.com/icon -->
<!DOCTYPE svg PUBLIC "-//W3C//DTD SVG 1.1//EN" "http://www.w3.org/Graphics/SVG/1.1/DTD/svg11.dtd">
<svg version="1.1" xmlns="http://www.w3.org/2000/svg" xmlns:xlink="http://www.w3.org/1999/xlink" x="0px" y="0px" viewBox="0 0 1000 1000" enable-background="new 0 0 1000 1000" xml:space="preserve" 
style="fill: white;">
<metadata> Svg Vector Icons : http://www.onlinewebfonts.com/icon </metadata>
<g><path d="M498.7,570.8c-6,0-12.1-1.7-17.5-5.5l-458-315.7c-13.9-9.5-17.5-28.6-7.8-42.5c9.5-13.9,28.6-17.5,42.5-7.7L498.5,503l440.5-303.6c13.9-9.8,33.1-6.2,42.5,7.7c9.5,13.9,6.2,33.1-7.8,42.5l-458,315.7c-5.1,3.6-11.1,5.5-17.4,5.5H498.7z"/><path d="M959.5,806.2H40.9c-16.9,0-30.5-13.7-30.5-30.6V224.4c0-16.9,13.7-30.5,30.5-30.5h918.6c16.9,0,30.5,13.7,30.5,30.5v551.1C990,792.5,976.3,806.2,959.5,806.2z M71.4,745h857.4V255.1H71.4V745z"/></g>
</svg>